<?xml version="1.0" standalone="no"?>
<svg viewBox="0 0 200 200" xmlns="http://www.w3.org/2000/svg">
  <path fill="#8B74B4" d="M32.5,-41C47.2,-41.1,67.7,-40.7,79.5,-31.5C91.3,-22.2,94.4,-4.1,88.7,10.5C83.1,25,68.7,36,55.6,44.4C42.5,52.9,30.7,58.7,20.5,54.7C10.4,50.7,1.8,37,-4.7,29.1C-11.1,21.2,-15.5,19.2,-22,16.4C-28.4,13.6,-37.1,10.1,-48.9,0.3C-60.7,-9.4,-75.7,-25.4,-70.1,-29.7C-64.6,-34,-38.4,-26.5,-23.2,-26.1C-8.1,-25.8,-4.1,-32.7,2.4,-36.4C8.9,-40.2,17.8,-40.8,32.5,-41Z" transform="translate(100 100)" />
</svg>
